<?xml version="1.0" encoding="UTF-8" standalone="no"?>
<svg
   xmlns:dc="http://purl.org/dc/elements/1.1/"
   xmlns:cc="http://creativecommons.org/ns#"
   xmlns:rdf="http://www.w3.org/1999/02/22-rdf-syntax-ns#"
   xmlns:svg="http://www.w3.org/2000/svg"
   xmlns="http://www.w3.org/2000/svg"
   xmlns:sodipodi="http://sodipodi.sourceforge.net/DTD/sodipodi-0.dtd"
   xmlns:inkscape="http://www.inkscape.org/namespaces/inkscape"
   width="142.17914mm"
   height="140.67235mm"
   viewBox="0 0 142.17914 140.67235"
   version="1.1"
   id="svg8"
   inkscape:version="1.0.1 (3bc2e813f5, 2020-09-07)"
   sodipodi:docname="避難所.svg">
  <defs
     id="defs2" />
  <sodipodi:namedview
     id="base"
     pagecolor="#ffffff"
     bordercolor="#666666"
     borderopacity="1.0"
     inkscape:pageopacity="0.0"
     inkscape:pageshadow="2"
     inkscape:zoom="1.4"
     inkscape:cx="471.38692"
     inkscape:cy="349.96412"
     inkscape:document-units="mm"
     inkscape:current-layer="layer1"
     inkscape:document-rotation="0"
     showgrid="false"
     fit-margin-top="0"
     fit-margin-left="0"
     fit-margin-right="0"
     fit-margin-bottom="0"
     inkscape:window-width="1920"
     inkscape:window-height="1001"
     inkscape:window-x="1699"
     inkscape:window-y="-9"
     inkscape:window-maximized="1" />
  <metadata
     id="metadata5">
    <rdf:RDF>
      <cc:Work
         rdf:about="">
        <dc:format>image/svg+xml</dc:format>
        <dc:type
           rdf:resource="http://purl.org/dc/dcmitype/StillImage" />
        <dc:title></dc:title>
      </cc:Work>
    </rdf:RDF>
  </metadata>
  <g
     inkscape:groupmode="layer"
     id="layer2"
     inkscape:label="レイヤー 2">
    <rect
       style="fill:#ffffff;fill-rule:evenodd;stroke-width:0.55022"
       id="rect40"
       width="186.53125"
       height="193.7128"
       x="-6.6145792"
       y="-35.340775" />
  </g>
  <g
     inkscape:label="レイヤー 1"
     inkscape:groupmode="layer"
     id="layer1"
     transform="translate(29.512191,-52.884067)">
    <g
       id="g38"
       transform="matrix(0.26458333,0,0,0.26458333,-35.162103,46.428498)">
      <g
         id="地図記号">
</g>
      <g
         id="レイヤー_4">
	<g
   id="g17">
		<path
   fill="#007456"
   d="m 237.28,246.079 c 19.071,0.012 34.537,-15.41 34.548,-34.444 0.012,-19.034 -15.436,-34.476 -34.506,-34.487 -19.065,-0.011 -34.531,15.411 -34.542,34.447 -0.013,19.033 15.434,34.472 34.5,34.484 z"
   id="path11" />

		<path
   fill="#007456"
   d="m 427.737,454.033 c 0,0 -8.782,-0.019 -10.496,-0.006 l -68.186,-0.04 -4.65,-75.98 c -0.14,-2.946 -0.974,-10.55 -1.885,-13.083 v 0 l -34.554,-77.956 41.235,0.024 26.349,47.673 c 4.581,8.054 14.837,10.875 22.906,6.298 8.057,-4.586 9.765,-14.826 5.175,-22.877 l -32.934,-55.741 c -3.001,-5.258 -8.533,-8.471 -14.583,-8.474 l -111.385,-0.067 c -5.329,-0.003 -10.394,2.551 -13.548,6.847 l -49.117,61.004 -52.124,-1.224 c -9.264,-0.222 -16.968,7.11 -17.187,16.364 -0.211,9.264 7.129,16.942 16.406,17.163 l 60.873,1.429 c 0.122,0.004 0.25,0.006 0.379,0.006 5.354,0.003 10.381,-2.521 13.566,-6.847 l 31.748,-37.893 29.007,63.011 -74.704,158.855 -10.335,22.774 c 0,0 3.093,0.002 16.081,0.01 l 4.82,0.003 c 3.834,0.002 4.89,0.002 8.247,0.005 8.221,0.005 16.141,-4.451 20.064,-12.298 l 74.332,-150.152 2.346,0.002 3.599,79.696 c 0.515,10.444 9.1,18.597 19.55,18.606 0.051,0 0.115,-0.004 0.167,-0.004 l 127.448,-0.789 c 0,0 -15.466,-30.048 -19.288,-33.873 -2.75,-2.744 -9.322,-2.466 -9.322,-2.466 z"
   id="path13" />

		<polygon
   fill="#007456"
   points="93.94,555.797 21.354,555.754 21.573,188.277 283.111,24.399 558.724,187.998 558.506,556.074 485.939,556.03 486.122,229.2 284.131,109.304 94.135,228.353 "
   id="polygon15" />

	</g>

</g>
      <g
         id="レイヤー_3">
</g>
      <g
         id="ガイド"
         display="none">
</g>
    </g>
  </g>
</svg>
